<svg xmlns="http://www.w3.org/2000/svg" viewBox="0 -0.0001 39.202 39.2031" width="39.202px" height="39.2031px">
  <g id="Group_202" transform="matrix(1, 0, 0, 1, 0, 8.881784197001252e-16)">
    <path fill-rule="evenodd" fill="#27a4f6" transform="translate(-956.277 -794.835)" d="M959.823,794.835h6.895a3.135,3.135,0,0,0-1.28,1.477l-9.16,24.231V798.381a3.6,3.6,0,0,1,3.546-3.546Z" id="Path_101"></path>
    <path fill-rule="evenodd" fill="#27a4f6" transform="translate(-1008.863 -819.555)" d="M1048.065,833.1v22.112a3.531,3.531,0,0,1-3.546,3.546h-6.846a2.831,2.831,0,0,0,1.182-1.428Z" id="Path_102"></path>
    <path fill-rule="evenodd" fill="#27a4f6" transform="translate(-956.277 -847.511)" d="M981.985,886.713H959.823a3.562,3.562,0,0,1-3.546-3.546v-6.8a2.948,2.948,0,0,0,1.478,1.182Z" id="Path_103"></path>
    <path fill-rule="evenodd" fill="#f06429" transform="translate(-980.997 -794.835)" d="M994.54,794.835h22.113a3.563,3.563,0,0,1,3.546,3.546v6.9a2.7,2.7,0,0,0-1.428-1.231Z" id="Path_104"></path>
  </g>
</svg>